<?xml version="1.0" standalone="no"?>
<!DOCTYPE svg PUBLIC "-//W3C//DTD SVG 20010904//EN"
 "http://www.w3.org/TR/2001/REC-SVG-20010904/DTD/svg10.dtd">
<svg version="1.0" xmlns="http://www.w3.org/2000/svg"
 width="1600.000000pt" height="707.000000pt" viewBox="0 0 1600.000000 707.000000"
 preserveAspectRatio="xMidYMid meet">

<g transform="translate(0.000000,707.000000) scale(0.100000,-0.100000)"
fill="#000000" stroke="none">
<path d="M11545 6889 c-44 -16 -393 -143 -775 -281 -382 -138 -735 -265 -785
-283 -49 -18 -423 -153 -830 -300 -1399 -505 -2150 -777 -2277 -823 l-126 -47
-202 -250 c-382 -474 -565 -701 -770 -955 -114 -140 -277 -347 -363 -460 -143
-186 -155 -206 -143 -225 51 -80 206 -345 206 -352 0 -4 -189 -73 -420 -152
-231 -79 -418 -146 -416 -148 2 -2 107 25 232 61 126 35 328 92 449 126 121
34 228 66 237 71 9 5 124 141 255 301 292 359 1000 1227 1107 1360 l79 96 76
20 c60 15 648 173 926 247 28 8 210 56 405 109 1359 362 1298 345 1420 398
191 82 241 119 595 434 149 132 473 419 720 638 499 442 504 446 490 446 -6
-1 -46 -14 -90 -31z"/>
<path d="M9375 5136 c-198 -51 -780 -198 -1293 -327 l-934 -234 -124 -139
c-68 -77 -123 -140 -122 -141 2 -2 30 1 63 6 33 5 184 25 335 44 151 20 322
42 380 50 58 8 193 26 300 39 736 95 816 110 975 170 92 35 183 87 253 144 43
35 426 372 532 469 8 7 10 13 5 12 -6 0 -172 -42 -370 -93z"/>
<path d="M9499 4416 c-2 -2 -76 -11 -164 -20 -88 -9 -236 -26 -330 -36 -93
-11 -276 -31 -405 -45 -129 -14 -311 -34 -405 -45 -93 -11 -197 -22 -230 -25
-33 -3 -136 -14 -230 -25 -93 -10 -280 -31 -415 -45 -531 -57 -573 -63 -594
-88 -10 -12 -91 -112 -181 -222 -460 -564 -629 -772 -728 -895 -60 -74 -110
-136 -112 -138 -1 -1 -98 -27 -216 -57 -219 -56 -214 -62 16 -20 72 14 192 36
268 50 76 14 146 25 157 25 15 0 154 115 475 395 33 29 112 97 176 152 l117
100 73 7 c41 3 135 15 209 26 74 11 221 31 325 45 502 68 462 59 650 142 94
41 193 85 220 98 28 12 66 29 85 38 19 8 256 114 525 235 270 120 549 245 620
277 165 73 168 74 129 75 -17 0 -33 -2 -35 -4z"/>
<path d="M5365 3949 c-148 -38 -297 -75 -330 -83 -79 -18 -185 -45 -265 -67
l-65 -19 -174 -216 c-96 -119 -170 -215 -165 -212 5 2 43 20 85 40 42 20 119
49 170 64 83 25 109 29 224 28 116 0 139 -3 210 -28 44 -16 94 -36 110 -46
l30 -19 125 166 c69 91 132 175 140 187 8 12 49 67 91 121 102 135 115 155 98
154 -8 0 -135 -31 -284 -70z"/>
<path d="M5248 2713 c7 -3 16 -2 19 1 4 3 -2 6 -13 5 -11 0 -14 -3 -6 -6z"/>
<path d="M375 1964 c-83 -29 -153 -111 -173 -201 l-10 -43 783 0 783 0 6 23
c3 12 6 70 6 130 l0 107 -677 -1 c-562 0 -685 -3 -718 -15z"/>
<path d="M2108 1947 c-50 -26 -72 -45 -103 -91 l-40 -58 -3 -334 c-3 -324 -2
-335 19 -384 27 -62 104 -135 162 -152 32 -10 180 -13 607 -13 553 0 566 0
611 21 64 30 114 77 143 136 l26 52 0 320 c0 317 -1 322 -24 371 -29 61 -86
117 -146 144 -44 20 -64 21 -617 21 l-571 0 -64 -33z m1022 -497 l0 -270 -385
0 -385 0 0 270 0 270 385 0 385 0 0 -270z"/>
<path d="M3710 1445 l0 -535 205 0 205 0 0 410 0 410 350 0 351 0 -3 -92 -3
-93 -196 -5 -196 -5 177 -310 178 -310 247 -3 c197 -2 245 0 239 10 -4 7 -58
93 -121 191 -62 97 -113 181 -113 186 0 4 18 16 41 26 55 25 111 81 139 141
22 44 24 63 24 174 0 93 -4 134 -16 162 -25 55 -97 128 -153 154 l-50 24 -652
0 -653 0 0 -535z"/>
<path d="M5644 1964 c-60 -21 -119 -77 -151 -142 l-28 -57 0 -305 c0 -231 3
-317 14 -353 18 -61 85 -138 149 -169 l47 -23 683 -3 683 -3 -3 133 -3 133
-582 3 -583 2 0 270 0 270 583 2 582 3 3 128 3 127 -678 -1 c-567 0 -685 -3
-719 -15z"/>
<path d="M7384 1956 c-60 -28 -113 -78 -140 -132 -18 -36 -19 -63 -19 -379 l0
-340 27 -47 c33 -56 94 -109 145 -128 31 -12 167 -15 716 -18 l677 -3 0 136 0
135 -585 0 -585 0 0 80 0 80 545 0 545 0 0 110 0 110 -545 0 -545 0 0 80 0 80
585 0 585 0 0 130 0 130 -677 0 -678 0 -51 -24z"/>
<path d="M8990 1850 l0 -130 183 2 182 3 3 128 3 127 -186 0 -185 0 0 -130z"/>
<path d="M9540 1450 l0 -530 220 0 220 0 0 400 0 400 280 0 280 0 0 130 0 130
-500 0 -500 0 0 -530z"/>
<path d="M10913 1964 c-59 -21 -132 -89 -159 -149 -23 -49 -24 -55 -24 -369
l0 -318 32 -60 c17 -32 48 -72 69 -89 77 -60 58 -59 796 -59 l675 0 -6 23 c-3
12 -6 69 -6 127 l0 105 -582 0 -583 0 -3 83 -3 82 551 0 550 0 0 110 0 110
-550 0 -550 0 0 80 0 80 585 0 585 0 0 99 c0 54 3 113 6 130 l7 31 -674 -1
c-568 0 -681 -3 -716 -15z"/>
<path d="M12639 1947 c-75 -38 -122 -95 -144 -172 -13 -45 -16 -104 -13 -352
4 -335 6 -349 83 -425 78 -77 28 -73 798 -76 l688 -2 -3 125 -3 126 -582 -1
-583 -1 0 276 0 275 583 2 582 3 3 128 3 127 -675 0 -674 0 -63 -33z"/>
<path d="M14240 1450 l0 -530 200 0 200 0 2 188 3 187 373 3 372 2 0 -190 0
-190 210 0 210 0 0 530 0 530 -210 0 -210 0 0 -220 0 -220 -372 2 -373 3 -3
218 -2 217 -200 0 -200 0 0 -530z"/>
<path d="M197 1563 c-4 -3 -7 -152 -7 -330 l0 -323 203 2 202 3 3 213 2 212
545 0 545 0 0 109 0 108 -77 7 c-101 8 -1408 8 -1416 -1z"/>
<path d="M190 320 l0 -130 185 0 185 0 0 25 0 25 -160 0 -160 0 0 85 0 85 160
0 c153 0 160 1 160 20 0 19 -7 20 -185 20 l-185 0 0 -130z"/>
<path d="M770 320 l0 -130 185 0 185 0 0 130 0 130 -25 0 -25 0 0 -105 0 -105
-140 0 -140 0 0 105 c0 98 -1 105 -20 105 -19 0 -20 -7 -20 -130z"/>
<path d="M1350 375 l0 -75 160 0 160 0 0 -30 0 -30 -160 0 -160 0 0 -25 0 -25
180 0 180 0 0 75 0 75 -144 0 c-79 0 -151 3 -160 6 -10 4 -16 18 -16 35 l0 29
160 0 c153 0 160 1 160 20 0 19 -7 20 -180 20 l-180 0 0 -75z"/>
<path d="M1920 430 c0 -18 7 -20 80 -20 l80 0 0 -110 0 -110 25 0 25 0 0 110
0 110 80 0 c73 0 80 2 80 20 0 19 -7 20 -185 20 -178 0 -185 -1 -185 -20z"/>
<path d="M2500 320 l0 -130 185 0 185 0 0 130 0 130 -185 0 -185 0 0 -130z
m320 5 l0 -85 -135 0 -135 0 0 85 0 85 135 0 135 0 0 -85z"/>
<path d="M3080 320 c0 -123 1 -130 20 -130 18 0 20 7 20 85 0 47 4 85 8 85 5
0 37 -38 73 -85 82 -110 90 -110 177 3 35 45 68 80 73 77 5 -4 9 -42 9 -86 0
-72 2 -79 20 -79 19 0 20 7 20 130 l0 130 -29 0 c-16 0 -31 -6 -34 -12 -7 -18
-137 -182 -147 -186 -5 -2 -43 42 -85 97 -60 80 -81 101 -100 101 l-25 0 0
-130z"/>
<path d="M3710 320 l0 -130 185 0 185 0 0 25 0 25 -165 0 -165 0 0 30 0 30
165 0 c158 0 165 1 165 20 0 19 -7 20 -152 20 -84 0 -159 4 -166 9 -8 4 -12
19 -10 32 l3 24 163 3 c154 2 162 4 162 22 0 19 -7 20 -185 20 l-185 0 0 -130z"/>
<path d="M4280 320 l0 -130 25 0 c24 0 25 3 25 55 l0 55 108 0 107 0 29 -55
c22 -43 34 -55 52 -55 l23 0 -24 55 -25 55 25 0 c24 0 25 2 25 75 l0 75 -185
0 -185 0 0 -130z m328 58 l-3 -33 -135 0 -135 0 -3 33 -3 32 141 0 141 0 -3
-32z"/>
<path d="M5180 320 l0 -130 25 0 c24 0 25 3 25 55 l0 55 160 0 c153 0 160 1
160 20 0 18 -8 20 -157 22 l-158 3 -3 33 -3 32 160 0 c154 0 161 1 161 20 0
19 -7 20 -185 20 l-185 0 0 -130z"/>
<path d="M5760 320 l0 -130 25 0 25 0 0 130 0 130 -25 0 -25 0 0 -130z"/>
<path d="M6020 320 c0 -123 1 -130 20 -130 18 0 20 7 20 55 l0 55 110 0 109 0
26 -55 c21 -44 31 -55 51 -55 30 0 30 0 -1 60 l-25 50 25 0 c24 0 25 2 25 75
l0 75 -180 0 -180 0 0 -130z m318 58 l-3 -33 -135 0 -135 0 -3 33 -3 32 141 0
141 0 -3 -32z"/>
<path d="M6590 375 l0 -75 163 -2 162 -3 0 -25 0 -25 -162 -3 -163 -2 0 -25 0
-25 185 0 185 0 0 75 0 74 -157 3 -158 3 -3 33 -3 32 160 0 c154 0 161 1 161
20 0 19 -7 20 -185 20 l-185 0 0 -75z"/>
<path d="M7170 430 c0 -18 7 -20 80 -20 l80 0 0 -110 0 -110 25 0 25 0 0 110
0 110 80 0 c73 0 80 2 80 20 0 19 -7 20 -185 20 -178 0 -185 -1 -185 -20z"/>
<path d="M8350 320 l0 -130 185 0 185 0 0 130 0 130 -185 0 -185 0 0 -130z
m320 30 l0 -60 -34 0 c-28 0 -35 -4 -38 -22 -3 -22 -8 -23 -100 -26 l-98 -3 0
86 0 85 135 0 135 0 0 -60z"/>
<path d="M8930 320 l0 -130 185 0 185 0 0 130 0 130 -25 0 -25 0 0 -105 0
-105 -140 0 -140 0 0 105 c0 98 -1 105 -20 105 -19 0 -20 -7 -20 -130z"/>
<path d="M9500 320 l0 -130 25 0 c24 0 25 3 25 55 l0 55 140 0 140 0 0 -55 c0
-48 2 -55 20 -55 19 0 20 7 20 130 l0 130 -185 0 -185 0 0 -130z m328 58 l-3
-33 -135 0 -135 0 -3 33 -3 32 141 0 141 0 -3 -32z"/>
<path d="M10080 320 l0 -130 185 0 185 0 0 25 0 25 -160 0 -160 0 0 105 0 105
-25 0 -25 0 0 -130z"/>
<path d="M10660 320 c0 -123 1 -130 20 -130 19 0 20 7 20 130 0 123 -1 130
-20 130 -19 0 -20 -7 -20 -130z"/>
<path d="M10910 430 c0 -17 8 -19 83 -22 l82 -3 3 -107 c2 -100 4 -108 22
-108 19 0 20 7 20 110 l0 110 80 0 c73 0 80 2 80 20 0 19 -7 20 -185 20 -177
0 -185 -1 -185 -20z"/>
<path d="M11490 375 l0 -75 160 0 160 0 0 -30 0 -30 -160 0 -160 0 0 -25 0
-25 185 0 185 0 0 130 0 130 -24 0 c-23 0 -25 -4 -28 -52 l-3 -53 -130 0 -130
0 -3 53 c-3 48 -5 52 -28 52 -23 0 -24 -2 -24 -75z"/>
<path d="M12390 320 c0 -122 1 -130 19 -130 17 0 20 8 23 53 l3 52 138 3 137
3 0 -56 c0 -52 1 -55 25 -55 l25 0 0 130 0 130 -185 0 -185 0 0 -130z m318 58
l-3 -33 -129 0 c-108 0 -130 3 -139 16 -6 9 -7 24 -4 33 5 14 26 16 142 16
l136 0 -3 -32z"/>
<path d="M12970 320 l0 -130 180 0 180 0 0 25 0 25 -160 0 -160 0 0 105 c0 98
-1 105 -20 105 -19 0 -20 -7 -20 -130z"/>
<path d="M13550 438 c0 -7 35 -65 78 -130 89 -136 105 -144 148 -78 15 22 31
39 35 38 4 -2 18 -19 31 -38 15 -22 33 -36 48 -38 22 -2 36 14 105 119 44 67
82 125 83 130 2 5 -9 9 -25 9 -24 0 -36 -13 -92 -96 -34 -52 -67 -94 -73 -92
-5 2 -18 17 -28 33 l-19 30 34 50 c41 60 43 75 11 75 -17 0 -31 -11 -46 -35
-12 -19 -25 -35 -30 -35 -5 0 -18 16 -30 35 -15 24 -29 35 -46 35 -32 0 -30
-15 11 -75 l34 -50 -19 -30 c-10 -16 -23 -31 -28 -33 -6 -2 -39 40 -73 92 -49
74 -69 96 -86 96 -13 0 -23 -5 -23 -12z"/>
<path d="M14280 320 l0 -130 25 0 c24 0 25 3 25 55 l0 55 140 0 140 0 0 -55
c0 -48 2 -55 20 -55 19 0 20 7 20 130 l0 130 -185 0 -185 0 0 -130z m328 58
c4 -36 -12 -40 -158 -36 l-115 3 -3 33 -3 33 138 -3 138 -3 3 -27z"/>
<path d="M14860 375 l0 -75 160 0 160 0 0 -30 0 -30 -160 0 -160 0 0 -25 0
-25 185 0 185 0 0 130 0 130 -24 0 c-23 0 -25 -4 -28 -52 l-3 -53 -130 0 -130
0 -3 53 c-3 48 -5 52 -28 52 -23 0 -24 -2 -24 -75z"/>
<path d="M15440 375 l0 -75 160 0 160 0 0 -30 0 -30 -160 0 -160 0 0 -25 0
-25 185 0 185 0 0 75 0 75 -162 2 -163 3 0 30 0 30 163 3 c154 2 162 4 162 22
0 19 -7 20 -185 20 l-185 0 0 -75z"/>
<path d="M7750 240 c0 -15 7 -20 25 -20 23 0 25 -4 25 -40 0 -22 5 -40 10 -40
6 0 10 27 10 60 l0 60 -35 0 c-28 0 -35 -4 -35 -20z"/>
</g>
</svg>
